<?xml version="1.0" encoding="UTF-8"?><svg id="Layer_2" xmlns="http://www.w3.org/2000/svg" xmlns:xlink="http://www.w3.org/1999/xlink" viewBox="0 0 283.12 68.98"><defs><style>.cls-1{fill:url(#linear-gradient-5);}.cls-1,.cls-2,.cls-3,.cls-4,.cls-5,.cls-6,.cls-7,.cls-8,.cls-9,.cls-10,.cls-11,.cls-12,.cls-13,.cls-14,.cls-15,.cls-16,.cls-17,.cls-18,.cls-19,.cls-20,.cls-21,.cls-22,.cls-23,.cls-24,.cls-25,.cls-26,.cls-27,.cls-28,.cls-29,.cls-30,.cls-31,.cls-32,.cls-33,.cls-34,.cls-35,.cls-36,.cls-37,.cls-38,.cls-39,.cls-40,.cls-41,.cls-42,.cls-43{stroke-width:0px;}.cls-1,.cls-2,.cls-3,.cls-4,.cls-5,.cls-6,.cls-7,.cls-8,.cls-9,.cls-12,.cls-13,.cls-14,.cls-15,.cls-16,.cls-17,.cls-18,.cls-19,.cls-20,.cls-21,.cls-22,.cls-23,.cls-24,.cls-25,.cls-26,.cls-27,.cls-28,.cls-29,.cls-30,.cls-31,.cls-32,.cls-33,.cls-34,.cls-35,.cls-36,.cls-37,.cls-38,.cls-39,.cls-40,.cls-41,.cls-42{opacity:.65;}.cls-2{fill:url(#linear-gradient-7);}.cls-3{fill:url(#linear-gradient-6);}.cls-4{fill:url(#linear-gradient-3);}.cls-5{fill:url(#linear-gradient-4);}.cls-6{fill:url(#linear-gradient-2);}.cls-7{fill:url(#linear-gradient-8);}.cls-8{fill:url(#linear-gradient-9);}.cls-9{fill:url(#linear-gradient);}.cls-10{fill:#6d6e71;}.cls-11{fill:#0a9f49;}.cls-12{fill:url(#linear-gradient-14);}.cls-13{fill:url(#linear-gradient-23);}.cls-14{fill:url(#linear-gradient-20);}.cls-15{fill:url(#linear-gradient-22);}.cls-16{fill:url(#linear-gradient-21);}.cls-17{fill:url(#linear-gradient-15);}.cls-18{fill:url(#linear-gradient-17);}.cls-19{fill:url(#linear-gradient-16);}.cls-20{fill:url(#linear-gradient-19);}.cls-21{fill:url(#linear-gradient-12);}.cls-22{fill:url(#linear-gradient-13);}.cls-23{fill:url(#linear-gradient-11);}.cls-24{fill:url(#linear-gradient-10);}.cls-25{fill:url(#linear-gradient-18);}.cls-26{fill:url(#linear-gradient-40);}.cls-27{fill:url(#linear-gradient-38);}.cls-28{fill:url(#linear-gradient-29);}.cls-29{fill:url(#linear-gradient-28);}.cls-30{fill:url(#linear-gradient-25);}.cls-31{fill:url(#linear-gradient-30);}.cls-32{fill:url(#linear-gradient-32);}.cls-33{fill:url(#linear-gradient-33);}.cls-34{fill:url(#linear-gradient-31);}.cls-35{fill:url(#linear-gradient-34);}.cls-36{fill:url(#linear-gradient-39);}.cls-37{fill:url(#linear-gradient-35);}.cls-38{fill:url(#linear-gradient-37);}.cls-39{fill:url(#linear-gradient-36);}.cls-40{fill:url(#linear-gradient-26);}.cls-41{fill:url(#linear-gradient-24);}.cls-42{fill:url(#linear-gradient-27);}.cls-43{fill:#076257;}</style><linearGradient id="linear-gradient" x1="267.77" y1="128.94" x2="255.23" y2="41.56" gradientUnits="userSpaceOnUse"><stop offset="0" stop-color="#85c77b"/><stop offset=".16" stop-color="#7cc476"/><stop offset=".41" stop-color="#66be6b"/><stop offset=".72" stop-color="#38b456"/><stop offset="1" stop-color="#0a9f49"/></linearGradient><linearGradient id="linear-gradient-2" x1="272.42" y1="-1863.36" x2="262.12" y2="-1935.19" gradientTransform="translate(0 -1909.97) scale(1 -1)" xlink:href="#linear-gradient"/><linearGradient id="linear-gradient-3" x1="156.96" y1="127.78" x2="181.45" y2="3.1" xlink:href="#linear-gradient"/><linearGradient id="linear-gradient-4" x1="156.77" y1="97.54" x2="182.33" y2="-32.65" xlink:href="#linear-gradient"/><linearGradient id="linear-gradient-5" x1="143.53" y1="124.22" x2="169.56" y2="-8.34" xlink:href="#linear-gradient"/><linearGradient id="linear-gradient-6" x1="148" y1="97.83" x2="174.3" y2="-36.09" xlink:href="#linear-gradient"/><linearGradient id="linear-gradient-7" x1="148.61" y1="128.36" x2="173.31" y2="2.56" xlink:href="#linear-gradient"/><linearGradient id="linear-gradient-8" x1="163.02" y1="99.69" x2="186.91" y2="-21.98" xlink:href="#linear-gradient"/><linearGradient id="linear-gradient-9" x1="163.75" y1="145.45" x2="187.74" y2="23.28" xlink:href="#linear-gradient"/><linearGradient id="linear-gradient-10" x1="162.9" y1="128.71" x2="186.12" y2="10.48" xlink:href="#linear-gradient"/><linearGradient id="linear-gradient-11" x1="235.8" y1="56.15" x2="244.69" y2="10.89" xlink:href="#linear-gradient"/><linearGradient id="linear-gradient-12" x1="269.74" y1="75.46" x2="284.77" y2="-1.08" xlink:href="#linear-gradient"/><linearGradient id="linear-gradient-13" x1="188.08" y1="-1859.86" x2="206.02" y2="-1951.22" gradientTransform="translate(0 -1909.97) scale(1 -1)" xlink:href="#linear-gradient"/><linearGradient id="linear-gradient-14" x1="180.22" y1="-1861.36" x2="198.18" y2="-1952.76" gradientTransform="translate(0 -1909.97) scale(1 -1)" xlink:href="#linear-gradient"/><linearGradient id="linear-gradient-15" x1="184.55" y1="-1860.61" x2="202.48" y2="-1951.9" gradientTransform="translate(0 -1909.97) scale(1 -1)" xlink:href="#linear-gradient"/><linearGradient id="linear-gradient-16" x1="183.56" y1="-1860.8" x2="201.48" y2="-1952.1" gradientTransform="translate(0 -1909.97) scale(1 -1)" xlink:href="#linear-gradient"/><linearGradient id="linear-gradient-17" x1="180.52" y1="-1861.4" x2="198.45" y2="-1952.7" gradientTransform="translate(0 -1909.97) scale(1 -1)" xlink:href="#linear-gradient"/><linearGradient id="linear-gradient-18" x1="183.19" y1="-1860.87" x2="201.12" y2="-1952.17" gradientTransform="translate(0 -1909.97) scale(1 -1)" xlink:href="#linear-gradient"/><linearGradient id="linear-gradient-19" x1="183.84" y1="-1860.74" x2="201.77" y2="-1952.05" gradientTransform="translate(0 -1909.97) scale(1 -1)" xlink:href="#linear-gradient"/><linearGradient id="linear-gradient-20" x1="224.05" y1="60.51" x2="234.56" y2="6.95" xlink:href="#linear-gradient"/><linearGradient id="linear-gradient-21" x1="236.74" y1="81.18" x2="249.01" y2="18.66" xlink:href="#linear-gradient"/><linearGradient id="linear-gradient-22" x1="217.1" y1="118.59" x2="236.17" y2="21.52" xlink:href="#linear-gradient"/><linearGradient id="linear-gradient-23" x1="216.02" y1="117.06" x2="233.25" y2="29.3" xlink:href="#linear-gradient"/><linearGradient id="linear-gradient-24" x1="234.74" y1="100.84" x2="248.22" y2="32.23" xlink:href="#linear-gradient"/><linearGradient id="linear-gradient-25" x1="227.73" y1="118.11" x2="243.85" y2="36.02" xlink:href="#linear-gradient"/><linearGradient id="linear-gradient-26" x1="222.99" y1="119.23" x2="238.97" y2="37.84" xlink:href="#linear-gradient"/><linearGradient id="linear-gradient-27" x1="266.3" y1="70.55" x2="278.65" y2="7.66" xlink:href="#linear-gradient"/><linearGradient id="linear-gradient-28" x1="262.97" y1="85" x2="275.85" y2="19.45" xlink:href="#linear-gradient"/><linearGradient id="linear-gradient-29" x1="259.28" y1="101.42" x2="273.1" y2="31.04" xlink:href="#linear-gradient"/><linearGradient id="linear-gradient-30" x1="251.1" y1="75.32" x2="264.45" y2="7.33" xlink:href="#linear-gradient"/><linearGradient id="linear-gradient-31" x1="252" y1="94.25" x2="265.26" y2="26.69" xlink:href="#linear-gradient"/><linearGradient id="linear-gradient-32" x1="251.88" y1="113.03" x2="265.41" y2="44.13" xlink:href="#linear-gradient"/><linearGradient id="linear-gradient-33" x1="249.06" y1="127.02" x2="262.76" y2="57.25" xlink:href="#linear-gradient"/><linearGradient id="linear-gradient-34" x1="244.94" y1="121.28" x2="256.97" y2="60.02" xlink:href="#linear-gradient"/><linearGradient id="linear-gradient-35" x1="185.82" y1="143.98" x2="230.8" y2="-85.03" xlink:href="#linear-gradient"/><linearGradient id="linear-gradient-36" x1="191.3" y1="122.31" x2="223.68" y2="-42.55" xlink:href="#linear-gradient"/><linearGradient id="linear-gradient-37" x1="200.66" y1="105.59" x2="218.75" y2="13.44" xlink:href="#linear-gradient"/><linearGradient id="linear-gradient-38" x1="203.46" y1="99.02" x2="221.39" y2="7.72" xlink:href="#linear-gradient"/><linearGradient id="linear-gradient-39" x1="196.59" y1="104.37" x2="212.06" y2="25.63" xlink:href="#linear-gradient"/><linearGradient id="linear-gradient-40" x1="205.79" y1="117.93" x2="222.86" y2="31.01" xlink:href="#linear-gradient"/></defs><g id="Layer_1-2"><g id="Layer_2-2"><g id="Layer_1-2"><path class="cls-11" d="M27.26,14.38c-1.03-1.27-2.32-2.3-3.78-3.04-1.47-.75-3.11-1.13-4.76-1.11-1.81-.04-3.61.36-5.22,1.19-1.47.78-2.67,1.99-3.44,3.46V0H.03v38.56h8.71v-4.34c1.78,3.24,5.29,5.14,8.98,4.86l.03-.02c3.51.02,6.86-1.46,9.21-4.07,1.18-1.32,2.09-2.85,2.69-4.51.67-1.84,1-3.78.98-5.73.02-1.97-.29-3.92-.9-5.79-.54-1.67-1.38-3.22-2.48-4.59ZM18.8,29.05c-1.04,1.07-2.5,1.65-3.99,1.59-1.97-.06-3.77-1.14-4.75-2.86v-4.97c.45-1.16,1.19-2.19,2.17-2.97.84-.71,1.91-1.12,3.01-1.14.71,0,1.4.16,2.03.48.62.32,1.16.77,1.58,1.31.45.59.81,1.25,1.05,1.96.27.76.4,1.57.4,2.38.07,1.55-.47,3.07-1.5,4.22Z"/><path class="cls-11" d="M46.06,11.76c-1.55,1.12-2.81,2.59-3.66,4.31v-5.29h-9.19v27.78h10.03v-16.48c.92-1.07,2.16-1.81,3.54-2.11,1.72-.44,3.5-.65,5.28-.64l.03-9.02c-.42-.05-.84-.07-1.27-.05-1.7,0-3.37.52-4.76,1.51Z"/><rect class="cls-11" x="54.19" y="0" width="10.03" height="8.45"/><rect class="cls-11" x="54.19" y="10.78" width="10.03" height="27.78"/><path class="cls-11" d="M88.66,14.88c-.83-1.46-2.06-2.66-3.55-3.44-1.64-.82-3.45-1.23-5.28-1.19-3.55-.05-6.94,1.44-9.32,4.07-1.18,1.33-2.08,2.87-2.66,4.55-1.24,3.64-1.26,7.58-.08,11.24.53,1.61,1.37,3.11,2.46,4.41,1.04,1.25,2.34,2.27,3.81,2.97,1.54.73,3.23,1.1,4.94,1.08,1.71.02,3.39-.35,4.94-1.08,1.47-.69,2.67-1.83,3.43-3.27v2.36c.03,1.08-.16,2.16-.56,3.17-.33.82-.84,1.55-1.5,2.14-.64.55-1.38.95-2.19,1.19-.85.25-1.73.37-2.62.37-1.58.01-3.13-.32-4.57-.98-1.34-.59-2.58-1.4-3.66-2.38l-5.28,5.49c1.65,1.7,3.62,3.05,5.81,3.96,2.46.97,5.09,1.44,7.73,1.37,2.35.03,4.68-.32,6.92-1.02,1.95-.62,3.77-1.59,5.35-2.88,1.47-1.22,2.64-2.76,3.43-4.49.82-1.86,1.23-3.88,1.19-5.91V10.77h-8.71v4.1ZM87.34,27.78c-.57.85-1.29,1.58-2.14,2.14-.8.48-1.73.73-2.66.71l.03-.02c-1.47.05-2.89-.53-3.91-1.59-1.05-1.13-1.6-2.63-1.53-4.16,0-.81.12-1.61.37-2.38.22-.71.58-1.38,1.06-1.95.44-.54.98-.99,1.58-1.32.61-.33,1.29-.51,1.98-.51,1.11.02,2.18.41,3.03,1.11,1,.78,1.76,1.82,2.19,3.01v4.96Z"/><path class="cls-11" d="M128,13.73c-.65-1.05-1.56-1.91-2.64-2.5-1.44-.73-3.04-1.08-4.65-1.01-1.85-.03-3.69.38-5.35,1.19-1.57.78-2.91,1.98-3.85,3.46V0h-10.03v38.56h10.03v-15.55c.46-1.14,1.22-2.13,2.19-2.88.41-.32.85-.58,1.32-.8.36-.17.74-.27,1.14-.29.86-.03,1.69.3,2.3.91.69.83,1.02,1.9.93,2.97v15.63h10.03v-18.3c0-1.1-.08-2.19-.25-3.28-.17-1.15-.57-2.25-1.16-3.25Z"/><path class="cls-11" d="M150.99,29.1c-.61.28-1.25.5-1.91.66-.55.15-1.12.23-1.69.24-.58.03-1.15-.17-1.58-.55-.45-.54-.66-1.23-.59-1.93v-9.19h5.44v-7.55h-5.44V2.06h-10.03v8.71h-3.43v7.55h3.43v12.72c-.04,1.3.19,2.59.66,3.8.39.96,1,1.81,1.78,2.49.78.64,1.69,1.11,2.67,1.37,1.05.29,2.14.43,3.22.42,1.59,0,3.18-.2,4.73-.59,1.54-.39,3.05-.89,4.51-1.5l-1.77-7.93Z"/><path class="cls-43" d="M186.35,27.47v-5.39c.01-1.36-.16-2.72-.51-4.03-.11-.38-.23-.75-.37-1.11-.57-1.44-1.49-2.72-2.69-3.71-.26-.21-.54-.41-.82-.59-1.51-.97-3.19-1.64-4.95-1.95-.41-.08-.83-.14-1.26-.2-1.07-.13-2.14-.2-3.21-.2-1.52-.02-3.03.11-4.53.39-.64.12-1.26.26-1.89.43-2.16.6-4.21,1.52-6.1,2.72l1.14,2.44.47,1.01,1.3,2.78c1.32-.9,2.74-1.66,4.22-2.25.72-.27,1.46-.47,2.22-.59.52-.09,1.05-.14,1.58-.17h.59c1.3-.11,2.59.22,3.67.95.66.62,1.07,1.47,1.14,2.38.01.17.01.33,0,.5v.84c-.29-.12-.59-.24-.89-.34-.29-.1-.73-.24-1.1-.33-1.18-.3-2.39-.43-3.61-.39-1.18-.01-2.35.11-3.5.35-.45.09-.89.2-1.33.34l-.59.19c-1.15.42-2.23,1.02-3.19,1.78-1.03.82-1.87,1.84-2.48,3.01-.32.64-.56,1.31-.71,2.01-.12.55-.18,1.12-.18,1.69v.15c-.02,2.15.78,4.22,2.22,5.81.17.2.36.38.55.56l.2.17c.86.73,1.84,1.31,2.9,1.71.79.3,1.62.5,2.46.59.44.06.89.09,1.34.08h.05c1.8,0,3.57-.42,5.17-1.24,1.67-.89,3.12-2.13,4.25-3.64l.15.7.07.31c.06.33.16.65.29.96.33.76.86,1.43,1.53,1.92.66.38,1.38.66,2.13.82.4.09.81.14,1.23.15.26.01.52.01.77,0,.64,0,1.29-.05,1.93-.13.73-.09,1.49-.22,2.3-.4v-8.45c-.56,0-1.1-.24-1.48-.65-.35-.6-.5-1.29-.45-1.98ZM176.31,28.88c-.01.37-.15.73-.37,1.03-.26.36-.58.67-.95.92-.53.33-1.1.59-1.7.77h-.05c-.58.19-1.18.29-1.79.3-.85.04-1.69-.22-2.36-.74-.5-.38-.83-.95-.9-1.58,0-.11,0-.22,0-.33,0-.91.44-1.76,1.19-2.27.54-.37,1.15-.64,1.78-.78.42-.1.85-.14,1.28-.12.64.01,1.28.08,1.91.21.66.13,1.32.31,1.96.53v2.05Z"/><path class="cls-43" d="M204.68,30.48c-.27.08-.55.14-.83.17-.18,0-.36.04-.55.04-.44.01-.88-.08-1.28-.27-.17-.08-.33-.19-.48-.33-.41-.42-.67-.96-.75-1.53-.06-.33-.08-.67-.08-1.01V0h-10.03v31.6c0,1.44.39,2.85,1.14,4.09.18.3.38.58.59.86.14.17.27.33.42.48,1.71,1.46,3.93,2.2,6.18,2.05.77,0,1.53-.06,2.29-.15.35-.04.69-.09,1.04-.15.34-.06.59-.11.93-.18.97-.2,1.93-.47,2.86-.83.33-.12.65-.26.98-.4l.2-.09-1.27-7.39c-.43.25-.89.45-1.36.58Z"/><path class="cls-43" d="M222.44,30.48c-.18.05-.36.09-.54.12-.28.05-.56.08-.84.08h-.24c-1.56-.1-2.35-1.15-2.35-3.16V0h-10.03v31.05c-.14,2.2.64,4.36,2.17,5.95.42.35.86.67,1.34.93.37.21.75.4,1.15.55,1.17.47,2.43.67,3.69.59h.76c.26,0,.69-.04,1.03-.07.83-.08,1.65-.21,2.46-.38.53-.11,1.05-.24,1.57-.39.33-.1.67-.2.99-.32.51-.18,1-.38,1.49-.59l-1.27-7.39c-.43.24-.9.42-1.38.55Z"/><path class="cls-43" d="M254.32,19.21c-.63-1.72-1.62-3.28-2.9-4.59-1.35-1.37-2.97-2.45-4.76-3.17-4.23-1.58-8.89-1.58-13.13,0-.34.14-.68.3-1.01.47-.53.27-1.05.57-1.55.9-.79.53-1.52,1.14-2.19,1.83-.53.55-1,1.15-1.43,1.78-.24.35-.45.7-.65,1.07-.32.59-.6,1.21-.83,1.85-.67,1.82-1,3.75-1,5.69-.01,1.83.33,3.65,1,5.35.48,1.21,1.13,2.34,1.93,3.35.32.4.65.77,1.01,1.14.14.14.29.29.45.42,1.1,1,2.36,1.82,3.72,2.42.2.09.4.17.59.25l.43.15c.9.31,1.83.54,2.77.7.36.06.71.11,1.08.15.65.08,1.31.11,1.97.11h1.23c1.28-.03,2.55-.21,3.79-.53.45-.12.89-.25,1.33-.4.89-.32,1.75-.72,2.58-1.19.54-.31,1.06-.66,1.55-1.05.28-.22.55-.45.81-.69,1.11-1.01,2.03-2.2,2.74-3.52l.1-.18-.31-.09-6.91-1.97-1.3-.31c-.05.12-.1.24-.16.36-.39.75-1.01,1.35-1.78,1.7-.16.08-.33.16-.49.23-.36.15-.74.27-1.12.35-.48.11-.98.16-1.47.16-1.15,0-2.27-.36-3.21-1.01-.77-.55-1.32-1.35-1.53-2.27-.07-.3-.11-.61-.1-.92h19.48c.07-.42.14-.9.18-1.45.05-.45.07-.89.08-1.33v-.29c0-.4,0-.81-.05-1.19-.1-1.46-.42-2.91-.93-4.28ZM235.34,21.71c.11-1.2.63-2.32,1.48-3.17l.18-.14c1.79-1.4,4.32-1.34,6.04.14.84.85,1.36,1.98,1.46,3.17h-9.17Z"/><path class="cls-43" d="M281.8,10.78h-8.01l-.21.98-.26,1.19-1.32,5.95-.27,1.23-1.19,5.35-.33,1.46-.7,3.14-1.89-6.93-.9-3.3-2.38-8.66-.11-.4h-10.3l1.75,4.81.8,2.22,4.47,12.3,1.28,3.53,1.78,4.93c-.13,1.55-.64,2.61-1.53,3.18-.31.19-.65.33-1.01.4-.33.08-.66.11-1,.11-1.4-.06-2.78-.37-4.08-.9v8.55c1.37.55,2.82.88,4.29.97.3.02.59.04.89.04h.47c1.21-.03,2.41-.23,3.57-.59.72-.25,1.42-.57,2.08-.95.32-.17.63-.36.93-.56l.53-.36c1.04-.77,1.95-1.71,2.7-2.77.02-.02.04-.05.06-.08.18-.27.36-.55.53-.83.54-.91.96-1.88,1.27-2.9l.49-1.62.35-1.19,1.52-5.03.34-1.15,1.88-6.2.32-1.05,1.94-6.42.33-1.07,1.99-6.54.24-.81h-1.31Z"/></g></g><polygon class="cls-9" points="253.94 31.52 253.63 31.44 253.63 31.44 253.85 31.7 253.85 31.7 253.94 31.52"/><path class="cls-6" d="M264.24,10.76h-.27l.38.42-.11-.42Z"/><path class="cls-4" d="M168.35,39.11s.03,0,.05,0c2.67-3.12,5.44-6.48,8.2-9.86.8-.97,1.61-1.96,2.43-2.97,1.9-2.34,3.87-4.76,5.83-7.06l.19-.22.79-.93s0-.01,0-.02c-.1-.37-.23-.74-.37-1.1l-1.26,1.52-.14.15c-2.6,3.05-5.24,6.24-7.76,9.3v.95c-.01.37-.15.73-.37,1.03-.26.36-.58.67-.95.92-.52.33-1.09.59-1.69.76-2.08,2.52-4.22,5.09-6.24,7.43,0,0,0,0,0,0,.43.06.85.08,1.28.08Z"/><path class="cls-5" d="M177,10.68c-.41-.08-.82-.14-1.25-.2-2.16,2.23-4.28,4.49-6.37,6.73.52-.09,1.05-.14,1.58-.17,1.99-2.12,4-4.25,6.05-6.36,0,0,0,0,0,0Z"/><path class="cls-1" d="M158.74,29.99c2.73-2.8,5.6-5.88,8.48-8.98-.45.09-.89.2-1.32.34l-.59.19c-2.15,2.31-4.31,4.62-6.37,6.76,0,.02-.01.03-.01.05-.12.54-.18,1.1-.18,1.65Z"/><path class="cls-3" d="M161.62,17.27h0c2.04-2.14,4.18-4.38,6.36-6.6-.63.12-1.25.26-1.87.43,0,0-.01,0-.02,0-1.68,1.73-3.35,3.49-4.95,5.16l.47,1.01Z"/><path class="cls-2" d="M161.51,36.55l.17.15c2.11-2.22,4.31-4.65,6.51-7.14,0-.1,0-.2,0-.31,0-.91.44-1.76,1.19-2.27.54-.37,1.15-.64,1.78-.78.01,0,.02,0,.04,0l1.22-1.39,3-3.44c-.29-.1-.71-.23-1.07-.32-.01,0-.02,0-.03,0l-2.62,3-.05.05c-3.65,4.16-7.23,8.23-10.69,11.88,0,0,.01.02.02.02.17.2.36.38.55.56Z"/><path class="cls-7" d="M182.77,13.22c-.25-.2-.52-.39-.79-.57-2,2.14-3.99,4.34-5.95,6.53.17.38.28.78.31,1.19,2.11-2.37,4.29-4.79,6.46-7.12-.01,0-.02-.02-.03-.03Z"/><path class="cls-8" d="M188.27,32.25c-2.25,2.05-4.32,4.28-6.18,6.69.39.08.78.13,1.18.15.02,0,.03,0,.05,0,1.53-1.91,3.18-3.72,4.95-5.4v-1.44Z"/><path class="cls-24" d="M185.59,26.85l.75-.88v-1.89c-.28.35-.55.71-.82,1.07l-.76,1.01c-1.31,1.71-2.65,3.47-3.94,5.17l-1.28,1.69-1.5,1.96.05.26c.06.33.16.65.29.96,0,.01.01.03.02.04l1.99-2.6c2.02-2.65,3.66-4.81,5.19-6.78Z"/><path class="cls-23" d="M255.29,24.94v-.26c0-.4,0-.81-.05-1.19,0,0,0-.02,0-.03-6.87-6.96-14.22-10.65-22.75-11.53-.53.26-1.04.56-1.52.89,0,0-.01,0-.02.01,9.31.56,17.01,4.35,24.34,12.11Z"/><polygon class="cls-21" points="283.12 10.79 281.8 10.78 281.76 10.78 282.87 11.6 282.88 11.6 283.12 10.79"/><path class="cls-22" d="M206.15,37.78c.33-.12.65-.26.97-.4-.74-3.16-1.93-5.31-3.27-6.73-.18,0-.36.04-.55.04-.44.01-.88-.08-1.28-.27,1.66,1.24,3.22,3.46,4.12,7.36Z"/><path class="cls-12" d="M202.33,38.69c-.77-3.47-2.15-5.42-4.12-5.79-1.74-.33-3.83.61-6.39,2.79.18.3.37.57.59.85,2.03-1.78,3.74-2.65,5.09-2.65.17,0,.35.01.52.04,1.52.29,2.63,1.98,3.3,5.01h0c.35-.04.7-.09,1.04-.15l-.02-.09Z"/><path class="cls-17" d="M200.72,3.5v-1.19c-3.65,2.55-7.01,5.48-10.03,8.76v1.47c3.02-3.36,6.38-6.38,10.03-9.04Z"/><path class="cls-19" d="M195.04,0c-1.5,1.19-2.97,2.44-4.36,3.74v1.43c1.93-1.83,3.96-3.55,6.07-5.17h-1.71Z"/><path class="cls-18" d="M198.94,29.06c.93.17,1.81.52,2.61,1.03-.41-.42-.67-.96-.75-1.53-.54-.22-1.1-.38-1.67-.49-.55-.1-1.1-.15-1.65-.15-2.25,0-4.5.84-6.8,2.38v1.31c2.35-1.73,4.61-2.68,6.82-2.68.48,0,.96.05,1.44.14Z"/><path class="cls-25" d="M200.72,10.25v-1.45c-3.71,2.87-7.08,6.16-10.03,9.81v1.78c2.95-3.75,6.32-7.15,10.03-10.14Z"/><path class="cls-20" d="M196.92,19.11c-1.08.94-1.95,2.11-2.54,3.42-.33.99.06,1.47.33,1.67.24.15.52.21.8.18.25,0,.55,0,.9-.04h.08c.46-.04,1.05-.08,1.64-.08.83-.04,1.66.1,2.43.42.05.03.11.05.17.07v-1.13c-.84-.3-1.72-.44-2.61-.42-.63,0-1.26.05-1.72.08s-.76.05-.96.05c0,0-.11,0-.14-.03s-.02-.14-.02-.14c.12-.58.39-1.12.78-1.57h0c1.29-1.78,3.46-3.45,4.46-3.45.06,0,.16,0,.22.03v-1.05c-.06,0-.16,0-.22,0-.9-.02-2.21.72-3.58,1.98Z"/><path class="cls-14" d="M230.3,17.55c.39,0,.73.04.95.04,1.94,0,3.87.27,5.74.82h.01c.39-.31.81-.54,1.25-.7-2.25-.77-4.62-1.16-7-1.15-.2,0-.47,0-.81-.04h-.08c-.59-.03-1.46-.08-2.38-.08h-.64c-.23.34-.45.69-.64,1.05,0,0,0,.01,0,.01.4,0,.88-.03,1.31-.03.89,0,1.71.05,2.31.08Z"/><path class="cls-16" d="M244.35,20.83c.08.29.13.58.15.88h-.73c2.41,1.74,4.71,3.81,6.69,6.03h1.4c-2.2-2.56-4.79-4.94-7.52-6.92Z"/><path class="cls-15" d="M231.01,22.32c-2.56,0-4.35.72-5.18,2.09-.92,1.52-.59,3.73.9,6.58.46.86.82,1.84,1.09,2.78.31.38.64.76.98,1.11.14.14.29.29.45.42,0,0,.02.02.03.03-.28-1.69-.83-3.39-1.62-4.9-1.32-2.49-1.64-4.34-.93-5.51.62-1.04,2.07-1.56,4.28-1.56,2.61.08,5.19.61,7.63,1.58,1.69.7,3.27,1.65,4.68,2.82h1.59c-1.73-1.58-3.72-2.86-5.88-3.78-2.56-1.01-5.27-1.56-8.02-1.64Z"/><path class="cls-13" d="M231.08,27.86c-.48.81-.23,2.13.79,4.04.91,1.71,1.13,3.8,1.15,5.83.19.08.38.16.56.23l.43.15s.03,0,.04.01c0-2.3-.18-4.71-1.27-6.75-1.09-2.05-.96-2.74-.81-2.97.15-.23.42-.3.9-.3.95.06,1.9.25,2.8.57,0,0,0,0,0-.01-.07-.3-.11-.61-.1-.92h.55c-1.05-.38-2.14-.61-3.25-.68-.69-.07-1.37.23-1.77.8Z"/><path class="cls-41" d="M245.43,29.15c-.05.12-.1.24-.16.36.72.67,1.48,1.46,2.16,2.27,1.1,1.27,2.06,2.65,2.87,4.13.28-.22.55-.44.81-.69,0,0,0,0,0,0-1.19-2.08-2.7-4.06-4.39-5.76l-1.29-.31Z"/><path class="cls-30" d="M243.02,31.42s-.02,0-.03.01c-.15.06-.3.09-.45.14-.06.02-.13.04-.19.06-.15.04-.29.11-.45.14.58.5,1.13,1.07,1.61,1.67,1.19,1.49,1.85,3.03,1.72,4.03-.08.37-.2.73-.36,1.08.43-.12.86-.24,1.29-.39.01,0,.02-.01.03-.01.05-.16.09-.31.11-.48.22-1.78-1.21-4.28-3.29-6.25Z"/><path class="cls-40" d="M237.93,34.67l.06-.14.15.08c1.15.59,2.55,2.31,2.56,2.83v.04c-.2.58-.49,1.12-.84,1.61h1.18s.03,0,.05,0c.28-.46.5-.96.65-1.48.15-1.2-2.01-3.54-3.48-4.1-.1-.04-.21-.06-.32-.06-.51,0-.89.43-1.08,1.23-.14.68-.21,1.37-.2,2.07,0,.7.04,1.39.13,2.09.35.06.7.11,1.05.15,0,0,.01,0,.02,0-.23-1.46-.25-3.55.06-4.3Z"/><path class="cls-42" d="M273.58,11.75l-.26,1.18c2.29,2.19,4.75,4.33,7.24,6.28l.32-1.06h0c-2.52-1.99-5.01-4.18-7.31-6.41h0Z"/><path class="cls-29" d="M271.99,18.93l-.26,1.19v.04c2.01,2.33,4.25,4.51,6.59,6.52l.31-1.04h0c-2.36-2.07-4.62-4.31-6.64-6.71Z"/><path class="cls-28" d="M270.58,25.53s-.03-.05-.04-.07h0s-.32,1.45-.32,1.45l.5.69c1.59,2.3,3.39,4.45,5.38,6.43l.34-1.14h0c-1.79-1.83-3.41-3.8-4.86-5.9-.3-.44-.69-1-.99-1.46Z"/><path class="cls-31" d="M267.61,23.1l-.89-3.26v-.03c-2.21-3.21-4.72-6.25-7.46-9.03h-1.75c4.02,3.69,7.21,8.06,10.1,12.33Z"/><path class="cls-34" d="M255.7,15.63l.79,2.18.02.05c3.31,3.55,6.37,7.35,9.1,11.37,2.62,3.86,5.5,7.53,8.62,11.01l.34-1.15v-.04c-2.9-3.31-5.61-6.79-8.09-10.43-3.57-5.09-7.08-9.45-10.76-12.98Z"/><path class="cls-32" d="M260.98,30.16l1.26,3.46.03.08c2.84,4.22,6.12,8.27,9.61,11.97.02-.02.04-.05.05-.07.18-.27.36-.55.53-.83,0,0,0,0,0,0-3.41-3.63-6.53-7.54-9.31-11.68-.69-.99-1.47-2.01-2.17-2.93Z"/><path class="cls-33" d="M262.48,41.74c-.3.19-.63.32-.98.4,1.91,2.51,4.01,4.98,6.21,7.24.32-.17.63-.35.93-.56h0c-2.18-2.21-4.26-4.63-6.14-7.09,0,0-.01.01-.02.01Z"/><path class="cls-35" d="M260.69,50.88c.3.02.59.04.89.04h.47s0,0,0,0l-.05-.06c-2.05-2.52-3.58-4.43-5.2-4.71-.13,0-.27-.04-.4-.05v1.05h.22c1.12.21,2.47,1.77,4.07,3.75Z"/><path class="cls-37" d="M208.44,5.54c3.2-1.48,6.58-2.57,10.03-3.24V.96c-3.45.68-6.83,1.76-10.03,3.23v1.35Z"/><path class="cls-39" d="M208.44,13.15c2.46-3.08,6.21-4.82,10.03-5.77v-1.07c-3.71.89-7.39,2.48-10.03,5.25v1.59Z"/><path class="cls-38" d="M218.58,39.01c-.37-2.21-1.04-4.38-2-6.41-2.05-4.44-4.49-10.84-2.01-15.06.92-1.47,2.3-2.6,3.91-3.24v-1.13c-1.99.7-3.69,2.06-4.81,3.85-2.72,4.64-.18,11.37,1.96,16.02.91,1.91,1.55,3.96,1.91,6.04h.01c.25,0,.68-.04,1.03-.07Z"/><path class="cls-27" d="M218.48,25.32v-4.68c-.23.5-.39,1.03-.48,1.57-.14,1.06.03,2.14.48,3.11Z"/><path class="cls-36" d="M213.06,38.47c-.21-1.28-.5-2.55-.87-3.79-.71-2.16-1.59-4.25-2.64-6.27-.37-.77-.75-1.57-1.11-2.35v2.46l.16.34c1.02,1.95,1.89,4.02,2.58,6.11.3,1.02.54,1.99.72,2.95.01,0,.02.02.04.02.36.21.73.39,1.11.54Z"/><path class="cls-26" d="M223.59,37.92c-.27-2.48-.83-4.98-1.69-7.32-.28.05-.56.08-.84.08h-.24c.92,2.41,1.52,4.99,1.77,7.56,0,0,0,0,.01,0,.33-.09.66-.2.98-.32Z"/><path class="cls-10" d="M7.74,62.37c0,2.26-1.48,3.84-3.64,3.84-1.36,0-2.41-.62-2.97-1.68v4.45H0v-10.45h1.13v1.65c.57-1.07,1.61-1.7,2.94-1.7,2.16,0,3.67,1.59,3.67,3.88ZM6.6,62.34c0-1.64-1.13-2.84-2.72-2.84s-2.74,1.19-2.74,2.84,1.13,2.84,2.74,2.84,2.72-1.19,2.72-2.84Z"/><path class="cls-10" d="M15.02,64.99c-.61.83-1.58,1.23-2.8,1.23-1.58,0-2.59-1.01-2.59-2.33s1.06-2.17,2.86-2.19h2.51v-.45c0-1.12-.7-1.78-2.04-1.78-.84,0-1.62.32-2.42.87l-.48-.83c.99-.65,1.81-1.03,3.12-1.03,1.88,0,2.93,1,2.94,2.64v5.04s-1.09,0-1.09,0v-1.17ZM15.01,63.53v-.91h-2.38c-1.28,0-1.94.39-1.94,1.23s.68,1.39,1.75,1.39c1.29,0,2.28-.65,2.57-1.71Z"/><path class="cls-10" d="M20.33,60.22c.51-1.12,1.45-1.72,2.74-1.74v1.14c-1.61-.03-2.61.97-2.74,2.48v4.06h-1.13v-7.64h1.13v1.7Z"/><path class="cls-10" d="M29.09,65.64c-.54.36-1.12.57-1.73.58-1.12,0-1.94-.67-1.94-2.17v-4.36h-1.1v-.91h1.1v-2.02h1.12v2.02h2.42s0,.91,0,.91h-2.42v4.16c0,.93.36,1.28,1.01,1.28.39,0,.8-.13,1.22-.39l.32.91Z"/><path class="cls-10" d="M42.85,62.34c0,2.29-1.61,3.87-3.87,3.87s-3.87-1.58-3.87-3.87,1.61-3.84,3.87-3.84,3.87,1.57,3.87,3.84ZM36.24,62.35c0,1.68,1.15,2.84,2.74,2.84s2.74-1.16,2.74-2.84-1.14-2.83-2.74-2.83-2.74,1.16-2.74,2.83Z"/><path class="cls-10" d="M46.69,57.77v.99h2.19v.93h-2.19v6.48h-1.12v-6.48h-.99v-.93h.99v-.84c0-1.67,1.17-2.57,2.45-2.57.58.01,1.17.19,1.64.54l-.46.91c-.35-.25-.77-.39-1.16-.39-.74,0-1.35.48-1.35,1.36Z"/><path class="cls-10" d="M63.42,57.54l-1,1.25c-.74-.8-1.8-1.29-2.83-1.29-2.03,0-3.62,1.57-3.62,3.57s1.59,3.58,3.62,3.58c1.01,0,2.06-.46,2.83-1.2l1.01,1.13c-1.03,1.01-2.49,1.67-3.93,1.67-2.97,0-5.28-2.25-5.28-5.16s2.33-5.1,5.33-5.1c1.44,0,2.87.59,3.86,1.57Z"/><path class="cls-10" d="M75.43,61.09c0,2.9-2.35,5.15-5.38,5.15s-5.38-2.25-5.38-5.15,2.35-5.12,5.38-5.12,5.38,2.22,5.38,5.12ZM66.41,61.09c0,2.01,1.67,3.61,3.65,3.61s3.61-1.59,3.61-3.61-1.62-3.58-3.61-3.58-3.65,1.57-3.65,3.58Z"/><path class="cls-10" d="M84.92,66.16l-5.41-7.28v7.28h-1.71v-10.15h1.68l5.44,7.29v-7.29h1.68v10.15h-1.68Z"/><path class="cls-10" d="M98.19,57.54l-1,1.25c-.74-.8-1.8-1.29-2.83-1.29-2.03,0-3.62,1.57-3.62,3.57s1.59,3.58,3.62,3.58c1.01,0,2.06-.46,2.83-1.2l1.01,1.13c-1.03,1.01-2.49,1.67-3.93,1.67-2.97,0-5.28-2.25-5.28-5.16s2.33-5.1,5.33-5.1c1.44,0,2.87.59,3.86,1.57Z"/><path class="cls-10" d="M106.6,64.61v1.55h-6.1v-10.15h1.71v8.6h4.39Z"/><path class="cls-10" d="M117.42,61.96c0,2.65-1.67,4.28-4.41,4.28s-4.42-1.62-4.42-4.28v-5.94h1.71v5.94c0,1.71,1.06,2.74,2.73,2.74s2.68-1.01,2.68-2.74v-5.94h1.71v5.94Z"/><path class="cls-10" d="M127.31,56.99l-.71,1.51c-1.1-.67-2.2-.94-2.97-.94-1,0-1.65.38-1.65,1.06,0,2.22,5.48,1.03,5.46,4.68,0,1.81-1.59,2.93-3.83,2.93-1.59,0-3.1-.65-4.15-1.61l.74-1.48c1.04.96,2.35,1.48,3.44,1.48,1.19,0,1.9-.45,1.9-1.23,0-2.26-5.48-1-5.48-4.61,0-1.74,1.49-2.83,3.7-2.83,1.32,0,2.61.42,3.55,1.04Z"/><path class="cls-10" d="M129.99,66.16v-10.15h1.71v10.15h-1.71Z"/><path class="cls-10" d="M144.84,61.09c0,2.9-2.35,5.15-5.38,5.15s-5.38-2.25-5.38-5.15,2.35-5.12,5.38-5.12,5.38,2.22,5.38,5.12ZM135.82,61.09c0,2.01,1.67,3.61,3.65,3.61s3.61-1.59,3.61-3.61-1.62-3.58-3.61-3.58-3.65,1.57-3.65,3.58Z"/><path class="cls-10" d="M154.34,66.16l-5.41-7.28v7.28h-1.71v-10.15h1.68l5.44,7.29v-7.29h1.68v10.15h-1.68Z"/></g></svg>